<svg width="64" height="64" viewBox="0 0 64 64" xmlns="http://www.w3.org/2000/svg">
    <circle cx="32" cy="32" r="29.5" fill="#F0B02F" stroke="#FBF3E4" stroke-width="3.5"/>
    <line x1="53.62" y1="40.95" x2="58.05" y2="42.79" stroke="#FBF3E4" stroke-width="3.8" stroke-linecap="round"/><line x1="40.95" y1="53.62" x2="42.79" y2="58.05" stroke="#FBF3E4" stroke-width="3.8" stroke-linecap="round"/><line x1="23.05" y1="53.62" x2="21.21" y2="58.05" stroke="#FBF3E4" stroke-width="3.8" stroke-linecap="round"/><line x1="10.38" y1="40.95" x2="5.95" y2="42.79" stroke="#FBF3E4" stroke-width="3.8" stroke-linecap="round"/><line x1="10.38" y1="23.05" x2="5.95" y2="21.21" stroke="#FBF3E4" stroke-width="3.8" stroke-linecap="round"/><line x1="23.05" y1="10.38" x2="21.21" y2="5.95" stroke="#FBF3E4" stroke-width="3.8" stroke-linecap="round"/><line x1="40.95" y1="10.38" x2="42.79" y2="5.95" stroke="#FBF3E4" stroke-width="3.8" stroke-linecap="round"/><line x1="53.62" y1="23.05" x2="58.05" y2="21.21" stroke="#FBF3E4" stroke-width="3.8" stroke-linecap="round"/>
    
    <polygon points="42.60,30.51 49.80,32.00 42.60,33.49" fill="#2A2119"/><polygon points="40.55,38.44 44.59,44.59 38.44,40.55" fill="#2A2119"/><polygon points="33.49,42.60 32.00,49.80 30.51,42.60" fill="#2A2119"/><polygon points="25.56,40.55 19.41,44.59 23.45,38.44" fill="#2A2119"/><polygon points="21.40,33.49 14.20,32.00 21.40,30.51" fill="#2A2119"/><polygon points="23.45,25.56 19.41,19.41 25.56,23.45" fill="#2A2119"/><polygon points="30.51,21.40 32.00,14.20 33.49,21.40" fill="#2A2119"/><polygon points="38.44,23.45 44.59,19.41 40.55,25.56" fill="#2A2119"/>
    <circle cx="32" cy="32" r="8.4" fill="#2A2119"/>
  </svg>